#!OML:ASF C:\ViconDB\ViconDB\414\Spring2016\041811\Spring2016.ASF
:FULLY-SPECIFIED
:DEGREES
295
root 12.8409 17.4874 -2.77201 -180.012 -11.6 -165.578
lowerback -0.728995 0.464262 1.79333
upperback 1.51273 0.394088 3.37294
thorax 1.95191 0.137694 2.46682
lowerneck -8.73009 -3.36089 -10.358
upperneck 20.9664 -11.8043 25.0554
head 10.2865 -5.28361 9.37294
rclavicle -6.55989e-015 -2.70347e-014
rhumerus -91.3224 35.3189 -120.549
rradius 88.0325
rwrist 26.4667
rhand -49.2964 -4.3515
rfingers 7.12502
rthumb -21.9137 -33.1304
lclavicle -6.55989e-015 -2.70347e-014
lhumerus -79.8323 -43.9103 117.654
lradius 76.0712
lwrist -38.5995
lhand -48.709 0.0569481
lfingers 7.12502
lthumb -21.3495 28.9008
rfemur 302.82 98.76 0.868191
rtibia 36.7124
rfoot -100.317 -48.271
rtoes 1.03368e-013
lfemur -45.1251 -11.6964 -2.24749
ltibia 36.4762
lfoot -5.49849 -7.71558
ltoes -6.99722e-014
296
root 12.8441 17.4707 -2.94694 -179.938 -11.3011 -165.625
lowerback -0.814737 0.568186 1.5891
upperback 1.53518 0.538488 3.32604
thorax 2.01703 0.209385 2.53778
lowerneck -8.6053 -3.40058 -10.5555
upperneck 20.7987 -11.9226 25.3931
head 10.2677 -5.35984 9.52799
rclavicle -1.67973e-014 -3.26007e-014
rhumerus -91.6745 35.4873 -120.941
rradius 88.0555
rwrist 26.2298
rhand -49.3964 -4.79862
rfingers 7.12502
rthumb -22.0096 -33.5663
lclavicle -1.67973e-014 -3.26007e-014
lhumerus -79.4985 -43.85 117.408
lradius 76.2558
lwrist -38.4925
lhand -48.516 -0.276379
lfingers 7.12502
lthumb -21.1641 28.5884
rfemur 304.515 100.301 2.70734
rtibia 36.5632
rfoot -98.5621 -48.7273
rtoes 2.14687e-013
lfemur -44.9071 -11.9199 -2.4488
ltibia 36.6471
lfoot -5.10751 -7.52136
ltoes -1.90833e-014
297
root 12.8443 17.4529 -3.12255 -179.804 -10.9549 -165.62
lowerback -0.957444 0.698117 1.64138
upperback 1.53948 0.719604 3.14088
thorax 2.09847 0.306902 2.32394
lowerneck -8.66455 -3.40206 -10.385
upperneck 20.8317 -12.0141 25.4586
head 10.3105 -5.39062 9.50887
rclavicle -1.19271e-014 1.59028e-014
rhumerus -91.8868 35.4627 -121.443
rradius 88.0505
rwrist 25.6172
rhand -49.5124 -4.95142
rfingers 7.12502
rthumb -22.121 -33.706
lclavicle -1.19271e-014 1.59028e-014
lhumerus -79.4738 -44.0281 117.096
lradius 76.6193
lwrist -38.449
lhand -48.171 -0.41912
lfingers 7.12502
lthumb -20.8327 28.4824
rfemur 307.383 102.245 5.78769
rtibia 36.4002
rfoot -96.165 -49.3222
rtoes -8.74653e-014
lfemur -44.6917 -11.9234 -2.65717
ltibia 36.9803
lfoot -4.63395 -7.50971
ltoes -3.97569e-014
298
root 12.8374 17.4334 -3.30157 -179.694 -10.5839 -165.768
lowerback -1.07835 0.864186 1.59199
upperback 1.53551 0.953585 2.95062
thorax 2.15768 0.429778 2.16398
lowerneck -8.61518 -3.42675 -10.3529
upperneck 20.8154 -12.1454 25.6263
head 10.3386 -5.45637 9.55355
rclavicle -1.47101e-014 -2.54444e-014
rhumerus -92.1027 35.3328 -121.859
rradius 88.0504
rwrist 25.1163
rhand -49.4892 -4.6685
rfingers 7.12502
rthumb -22.0988 -33.4257
lclavicle -1.47101e-014 -2.54444e-014
lhumerus -79.369 -44.1668 116.882
lradius 76.7312
lwrist -38.4122
lhand -48.1098 -0.498851
lfingers 7.12502
lthumb -20.7739 28.4091
rfemur 310.245 104.488 8.64449
rtibia 36.2556
rfoot -93.2881 -49.1946
rtoes 2.00375e-013
lfemur -44.3813 -12.1261 -2.99058
ltibia 37.4468
lfoot -4.15003 -7.53818
ltoes -7.63333e-014
299
root 12.8291 17.4181 -3.48298 -179.582 -10.1287 -165.844
lowerback -1.26338 0.987474 1.5327
upperback 1.58334 1.11632 2.88644
thorax 2.30676 0.512113 2.14018
lowerneck -8.5972 -3.44316 -10.5013
upperneck 20.7697 -12.1506 25.707
head 10.335 -5.46826 9.61443
rclavicle 1.07344e-014 2.94201e-014
rhumerus -92.2926 35.4129 -122.233
rradius 87.8823
rwrist 24.8187
rhand -49.6274 -4.95378
rfingers 7.12502
rthumb -22.2315 -33.6952
lclavicle 1.07344e-014 2.94201e-014
lhumerus -78.9198 -44.1409 116.437
lradius 77.0121
lwrist -37.9796
lhand -47.6625 -1.17614
lfingers 7.12502
lthumb -20.3441 27.7783
rfemur 313.331 107.295 11.8097
rtibia 36.0701
rfoot -89.7193 -49.0508
rtoes -2.76708e-013
lfemur -44.0083 -12.4238 -3.13958
ltibia 37.9865
lfoot -3.54306 -7.61976
ltoes -5.88403e-014
300
root 12.814 17.4059 -3.66594 -179.374 -9.66586 -166.09
lowerback -1.47967 1.11917 1.4125
upperback 1.57051 1.29922 2.77181
thorax 2.41016 0.605993 2.10003
lowerneck -8.5142 -3.47792 -10.7116
upperneck 20.6826 -12.1578 25.7901
head 10.307 -5.4896 9.68676
rclavicle -3.97569e-015 -4.77083e-015
rhumerus -92.6774 35.5181 -122.76
rradius 87.8294
rwrist 24.7212
rhand -49.9377 -5.62572
rfingers 7.12502
rthumb -22.5293 -34.3313
lclavicle -3.97569e-015 -4.77083e-015
lhumerus -78.4812 -44.0288 115.977
lradius 77.1987
lwrist -37.75
lhand -47.4228 -1.94943
lfingers 7.12502
lthumb -20.1137 27.0294
rfemur 315.399 109.934 13.7454
rtibia 35.8745
rfoot -86.6656 -49.1092
rtoes -1.57437e-013
lfemur -43.7379 -12.9531 -3.29944
ltibia 38.6045
lfoot -2.60947 -7.81779
ltoes 2.94201e-014
301
root 12.7992 17.403 -3.84527 -179.156 -9.19019 -166.352
lowerback -1.63795 1.24812 1.30823
upperback 1.52508 1.48524 2.60441
thorax 2.44899 0.703309 1.99583
lowerneck -8.51031 -3.49444 -10.5975
upperneck 20.7697 -12.1471 25.5671
head 10.3082 -5.48121 9.57629
rclavicle -1.56046e-014 -3.18055e-015
rhumerus -92.9307 35.4692 -123.22
rradius 87.6235
rwrist 24.7342
rhand -49.8281 -6.21937
rfingers 7.12502
rthumb -22.4241 -34.9377
lclavicle -1.56046e-014 -3.18055e-015
lhumerus -78.0112 -43.9684 115.336
lradius 77.4219
lwrist -37.8458
lhand -46.7651 -2.76103
lfingers 7.12502
lthumb -19.4814 26.283
rfemur 317.474 112.847 15.6269
rtibia 35.6066
rfoot -83.1197 -48.6543
rtoes 9.22361e-014
lfemur -43.5836 -13.5803 -3.33286
ltibia 39.2695
lfoot -1.54562 -7.86295
ltoes -4.49253e-014
302
root 12.7808 17.4009 -4.02436 -178.883 -8.73884 -166.772
lowerback -1.78766 1.36888 1.11614
upperback 1.47355 1.66648 2.40286
thorax 2.47569 0.797847 1.90592
lowerneck -8.49221 -3.51152 -10.6505
upperneck 20.7529 -12.1208 25.5031
head 10.2893 -5.47316 9.56291
rclavicle -4.06515e-014 -1.11319e-014
rhumerus -93.0933 35.3736 -123.639
rradius 87.4004
rwrist 25.042
rhand -49.9484 -7.37963
rfingers 7.12502
rthumb -22.5395 -36.084
lclavicle -4.06515e-014 -1.11319e-014
lhumerus -77.4895 -43.8624 114.74
lradius 77.5877
lwrist -37.776
lhand -46.1709 -3.29476
lfingers 7.12502
lthumb -18.91 25.806
rfemur 319.035 115.741 16.9114
rtibia 35.3526
rfoot -79.507 -49.1901
rtoes 1.90833e-013
lfemur -43.5731 -14.1224 -3.5911
ltibia 39.996
lfoot -1.6459 -7.10016
ltoes 3.57812e-015
303
root 12.7613 17.4076 -4.20488 -178.548 -8.26466 -167.227
lowerback -2.02946 1.47833 0.880094
upperback 1.398 1.83224 2.21728
thorax 2.52813 0.883454 1.85939
lowerneck -8.39721 -3.54773 -10.8241
upperneck 20.7522 -12.1341 25.4826
head 10.2796 -5.49883 9.58901
rclavicle 1.0635e-014 -3.65764e-014
rhumerus -93.2411 35.3488 -124.066
rradius 87.0692
rwrist 24.9903
rhand -50.3408 -8.24263
rfingers 7.12502
rthumb -22.9161 -36.9008
lclavicle 1.0635e-014 -3.65764e-014
lhumerus -77.1294 -43.8048 114.267
lradius 77.8786
lwrist -37.5936
lhand -45.6711 -3.60541
lfingers 7.12502
lthumb -18.4294 25.5416
rfemur 320.605 118.866 18.1136
rtibia 35.0652
rfoot -75.4907 -49.3989
rtoes 2.09917e-013
lfemur -43.6071 -14.5967 -3.88785
ltibia 40.6959
lfoot -2.68424 -5.41732
ltoes 4.01545e-014
304
root 12.7426 17.4109 -4.38697 -178.244 -7.81652 -167.77
lowerback -2.22993 1.56737 0.534467
upperback 1.36063 1.97765 1.98793
thorax 2.5947 0.957508 1.82877
lowerneck -8.48688 -3.52747 -10.704
upperneck 20.8529 -12.0783 25.2968
head 10.2982 -5.46037 9.4997
rclavicle 3.02153e-014 1.59028e-014
rhumerus -93.2004 35.2482 -124.446
rradius 86.7633
rwrist 24.4563
rhand -50.3984 -7.59984
rfingers 7.12502
rthumb -22.9715 -36.2512
lclavicle 3.02153e-014 1.59028e-014
lhumerus -76.652 -43.7141 113.57
lradius 78.0293
lwrist -37.9444
lhand -45.1504 -3.74607
lfingers 7.12502
lthumb -17.9284 25.4476
rfemur 321.944 122.212 19.0335
rtibia 34.7762
rfoot -71.1624 -49.6913
rtoes -3.97569e-014
lfemur -43.5222 -14.6881 -4.45355
ltibia 41.3622
lfoot -3.12526 -4.67024
ltoes -1.09332e-013
305
root 12.7224 17.4209 -4.57039 -178.031 -7.33976 -168.278
lowerback -2.33962 1.68356 0.258015
upperback 1.31117 2.15477 1.81193
thorax 2.597 1.04668 1.81297
lowerneck -8.41889 -3.54983 -10.849
upperneck 20.8533 -12.0394 25.2112
head 10.2751 -5.45618 9.49986
rclavicle -1.98785e-016 1.27222e-014
rhumerus -93.1259 35.199 -124.683
rradius 86.3354
rwrist 24.4467
rhand -50.6862 -8.31881
rfingers 7.12502
rthumb -23.2476 -36.9355
lclavicle -1.98785e-016 1.27222e-014
lhumerus -76.3064 -43.6802 113.195
lradius 78.2135
lwrist -38.0814
lhand -44.9533 -3.8791
lfingers 7.12502
lthumb -17.7387 25.3318
rfemur 322.982 125.734 19.7112
rtibia 34.4515
rfoot -66.6622 -50.0835
rtoes 1.17681e-013
lfemur -43.2266 -14.7564 -5.02307
ltibia 41.9109
lfoot -3.53092 -4.58176
ltoes -1.04561e-013
306
root 12.6979 17.4365 -4.75923 -177.892 -6.82121 -168.756
lowerback -2.46895 1.78535 0.0615114
upperback 1.31248 2.30877 1.60997
thorax 2.66704 1.12478 1.72703
lowerneck -8.5953 -3.55068 -10.7012
upperneck 21.1337 -11.9867 24.8094
head 10.3572 -5.41406 9.32551
rclavicle -4.27387e-014 9.54166e-015
rhumerus -92.913 35.1251 -124.829
rradius 85.9385
rwrist 24.3397
rhand -50.9221 -7.86544
rfingers 7.12502
rthumb -23.4738 -36.4534
lclavicle -4.27387e-014 9.54166e-015
lhumerus -75.9815 -43.6853 112.751
lradius 78.2431
lwrist -38.4255
lhand -44.8376 -3.43395
lfingers 7.12502
lthumb -17.6274 25.787
rfemur 323.602 129.047 19.9985
rtibia 34.1027
rfoot -62.416 -50.7011
rtoes 1.87653e-013
lfemur -42.7274 -14.6907 -5.6499
ltibia 42.3669
lfoot -4.05613 -4.61322
ltoes -6.20208e-014
307
root 12.6703 17.4514 -4.94658 -177.822 -6.35795 -169.316
lowerback -2.49457 1.82966 -0.234176
upperback 1.29746 2.38896 1.44919
thorax 2.65836 1.1638 1.73158
lowerneck -8.47907 -3.49819 -10.6956
upperneck 21.1918 -11.7966 24.4933
head 10.2814 -5.33852 9.22464
rclavicle -5.66536e-015 -6.52014e-014
rhumerus -92.8751 35.085 -125.097
rradius 85.5776
rwrist 23.9608
rhand -51.1719 -7.89634
rfingers 7.12502
rthumb -23.7135 -36.4534
lclavicle -5.66536e-015 -6.52014e-014
lhumerus -75.7078 -43.5197 112.433
lradius 78.4428
lwrist -38.4103
lhand -44.4122 -3.57738
lfingers 7.12502
lthumb -17.218 25.6798
rfemur 323.936 132.16 19.9332
rtibia 33.7238
rfoot -58.2512 -51.6369
rtoes 1.62208e-013
lfemur -42.0924 -14.5756 -6.45121
ltibia 42.7319
lfoot -4.82195 -4.45625
ltoes -1.13307e-014
308
root 12.6458 17.4712 -5.13587 -177.772 -5.84307 -169.875
lowerback -2.51955 1.89433 -0.546274
upperback 1.25925 2.49663 1.2906
thorax 2.62348 1.21636 1.74819
lowerneck -8.35679 -3.43692 -10.7873
upperneck 21.336 -11.6568 24.2818
head 10.2615 -5.29487 9.18593
rclavicle -4.26393e-014 -1.90833e-014
rhumerus -92.6656 34.9696 -125.191
rradius 85.0817
rwrist 24.4899
rhand -51.5302 -8.1291
rfingers 7.12502
rthumb -24.0571 -36.6412
lclavicle -4.26393e-014 -1.90833e-014
lhumerus -75.6198 -43.5299 112.209
lradius 78.6195
lwrist -38.3288
lhand -44.129 -3.62796
lfingers 7.12502
lthumb -16.9454 25.6528
rfemur 324.166 135.211 19.7962
rtibia 33.355
rfoot -54.1611 -52.9035
rtoes 2.16278e-013
lfemur -41.3522 -14.3005 -7.25809
ltibia 43.0552
lfoot -5.68802 -4.39101
ltoes -1.56046e-014
